#N canvas 415 88 594 704 12;
#X obj 158 41 inlet~;
#X obj 158 161 rzero~ 1;
#X obj 44 505 rpole~ 1;
#X obj 44 651 outlet~;
#X obj 44 552 samphold~;
#X text 100 601 convert s to Hz;
#X obj 158 207 max~ 0;
#X obj 158 255 *~ -1;
#X obj 158 279 +~ 1;
#X obj 44 602 pow~ -1;
#X obj 158 112 *~ 1e+37;
#X obj 158 88 clip~ 0 1e-37;
#X text 259 98 vanilla [>~] (inspired by heavy libraries);
#X obj 44 430 samplerate~;
#X obj 44 454 pow -1;
#X obj 44 406 loadbang;
#X text 128 429 seconds per sample;
#X text 107 504 seconds counter;
#X obj 97 361 -~;
#X obj 97 337 rzero~ -1;
#X text 200 260 invert input impulse peak to notch to reset counter with single 0-sample, f 37;
#X text 208 200 keep positive impulse on upward crossing \, remove negative impulse / downward crossing, f 44;
#X text 450 650 Ben Wesch \, 2024;
#X text 222 160 zero-crossing impulses via derivation of [>~];
#X text 169 339 delay counter reset by 1 sample to ensure that [samphold~] holds max value on trigger, f 44;
#X connect 0 0 11 0;
#X connect 1 0 6 0;
#X connect 2 0 4 0;
#X connect 4 0 9 0;
#X connect 6 0 7 0;
#X connect 7 0 8 0;
#X connect 8 0 4 1;
#X connect 8 0 19 0;
#X connect 8 0 18 1;
#X connect 9 0 3 0;
#X connect 10 0 1 0;
#X connect 11 0 10 0;
#X connect 13 0 14 0;
#X connect 14 0 2 0;
#X connect 15 0 13 0;
#X connect 18 0 2 1;
#X connect 19 0 18 0;
